<svg xmlns="http://www.w3.org/2000/svg" viewBox="0 0 1280 800" width="1280" height="800">
  <rect width="1280" height="800" fill="#1E1D19"/>
  <defs>
    <pattern id="grid-iceman" width="64" height="64" patternUnits="userSpaceOnUse">
      <path d="M 64 0 L 0 0 0 64" fill="none" stroke="#2E2B25" stroke-width="1"/>
    </pattern>
  </defs>
  <rect width="1280" height="800" fill="url(#grid-iceman)"/>

  <g stroke="#C87D42" stroke-width="3" stroke-linecap="round" transform="translate(1020,150)">
    <line x1="0" y1="-70" x2="0" y2="70"/>
    <line x1="-61" y1="-35" x2="61" y2="35"/>
    <line x1="-61" y1="35" x2="61" y2="-35"/>
    <line x1="0" y1="-70" x2="-16" y2="-50"/>
    <line x1="0" y1="-70" x2="16" y2="-50"/>
    <line x1="0" y1="70" x2="-16" y2="50"/>
    <line x1="0" y1="70" x2="16" y2="50"/>
    <line x1="-61" y1="-35" x2="-38" y2="-42"/>
    <line x1="-61" y1="-35" x2="-51" y2="-13"/>
    <line x1="61" y1="35" x2="38" y2="42"/>
    <line x1="61" y1="35" x2="51" y2="13"/>
    <line x1="-61" y1="35" x2="-38" y2="42"/>
    <line x1="-61" y1="35" x2="-51" y2="13"/>
    <line x1="61" y1="-35" x2="38" y2="-42"/>
    <line x1="61" y1="-35" x2="51" y2="-13"/>
  </g>

  <text x="96" y="580" font-family="Arial, Helvetica, sans-serif" font-size="18" font-weight="700" letter-spacing="4" fill="#D89968">CASE STUDY &#183; SHOPIFY</text>
  <text x="92" y="668" font-family="Arial, Helvetica, sans-serif" font-size="72" font-weight="800" fill="#F7F5F1">Iceman</text>
  <text x="96" y="716" font-family="Arial, Helvetica, sans-serif" font-size="21" fill="#A79D87">Real-time ordering &amp; last-mile delivery logistics</text>

  <rect x="0" y="0" width="1280" height="800" fill="none" stroke="#2E2B25" stroke-width="2"/>
</svg>
